<mxfile host="65bd71144e">
    <diagram id="oXKS-gWvoLZ0AP9WKIHT" name="Page-1">
        <mxGraphModel dx="608" dy="194" grid="1" gridSize="10" guides="1" tooltips="1" connect="1" arrows="1" fold="1" page="1" pageScale="1" pageWidth="827" pageHeight="1169" math="0" shadow="0">
            <root>
                <mxCell id="0"/>
                <mxCell id="1" parent="0"/>
                <mxCell id="5" style="edgeStyle=none;html=1;exitX=1;exitY=0.5;exitDx=0;exitDy=0;fontFamily=Georgia;fontSize=19;strokeWidth=3;" edge="1" parent="1" source="2" target="3">
                    <mxGeometry relative="1" as="geometry"/>
                </mxCell>
                <mxCell id="2" value="Obtain New Data" style="rounded=1;whiteSpace=wrap;html=1;fontSize=19;fillColor=#3727eb;fontStyle=1;fontFamily=Georgia;" vertex="1" parent="1">
                    <mxGeometry x="40" y="40" width="160" height="40" as="geometry"/>
                </mxCell>
                <mxCell id="6" style="edgeStyle=none;html=1;exitX=1;exitY=0.5;exitDx=0;exitDy=0;entryX=0;entryY=0.5;entryDx=0;entryDy=0;fontFamily=Georgia;fontSize=19;strokeWidth=3;" edge="1" parent="1" source="3" target="4">
                    <mxGeometry relative="1" as="geometry"/>
                </mxCell>
                <mxCell id="3" value="Train Model" style="rounded=1;whiteSpace=wrap;html=1;fontSize=19;fillColor=#3727eb;fontStyle=1;fontFamily=Georgia;" vertex="1" parent="1">
                    <mxGeometry x="220" y="40" width="120" height="40" as="geometry"/>
                </mxCell>
                <mxCell id="9" value="" style="edgeStyle=none;html=1;strokeWidth=3;fontFamily=Georgia;fontSize=19;" edge="1" parent="1" source="4" target="8">
                    <mxGeometry relative="1" as="geometry"/>
                </mxCell>
                <mxCell id="4" value="Evaluate" style="rounded=1;whiteSpace=wrap;html=1;fontSize=19;fillColor=#3727eb;fontStyle=1;fontFamily=Georgia;" vertex="1" parent="1">
                    <mxGeometry x="360" y="40" width="120" height="40" as="geometry"/>
                </mxCell>
                <mxCell id="43" value="" style="edgeStyle=none;html=1;strokeWidth=3;fontFamily=Georgia;fontSize=19;entryX=0.4;entryY=-0.01;entryDx=0;entryDy=0;entryPerimeter=0;" edge="1" parent="1" source="8" target="16">
                    <mxGeometry relative="1" as="geometry"/>
                </mxCell>
                <mxCell id="8" value="Incremental Update 1" style="rounded=1;whiteSpace=wrap;html=1;fontSize=19;fillColor=#f67d26;fontStyle=1;fontFamily=Georgia;" vertex="1" parent="1">
                    <mxGeometry x="500" y="40" width="200" height="40" as="geometry"/>
                </mxCell>
                <mxCell id="10" style="edgeStyle=none;html=1;exitX=1;exitY=0.5;exitDx=0;exitDy=0;fontFamily=Georgia;fontSize=19;strokeWidth=3;" edge="1" parent="1" source="11" target="13">
                    <mxGeometry relative="1" as="geometry"/>
                </mxCell>
                <mxCell id="11" value="Obtain New Data" style="rounded=1;whiteSpace=wrap;html=1;fontSize=19;fillColor=#3727eb;fontStyle=1;fontFamily=Georgia;" vertex="1" parent="1">
                    <mxGeometry x="60" y="100" width="160" height="40" as="geometry"/>
                </mxCell>
                <mxCell id="12" style="edgeStyle=none;html=1;exitX=1;exitY=0.5;exitDx=0;exitDy=0;entryX=0;entryY=0.5;entryDx=0;entryDy=0;fontFamily=Georgia;fontSize=19;strokeWidth=3;" edge="1" parent="1" source="13" target="15">
                    <mxGeometry relative="1" as="geometry"/>
                </mxCell>
                <mxCell id="13" value="Train Model" style="rounded=1;whiteSpace=wrap;html=1;fontSize=19;fillColor=#3727eb;fontStyle=1;fontFamily=Georgia;" vertex="1" parent="1">
                    <mxGeometry x="240" y="100" width="120" height="40" as="geometry"/>
                </mxCell>
                <mxCell id="14" value="" style="edgeStyle=none;html=1;strokeWidth=3;fontFamily=Georgia;fontSize=19;" edge="1" parent="1" source="15" target="16">
                    <mxGeometry relative="1" as="geometry"/>
                </mxCell>
                <mxCell id="15" value="Evaluate" style="rounded=1;whiteSpace=wrap;html=1;fontSize=19;fillColor=#3727eb;fontStyle=1;fontFamily=Georgia;" vertex="1" parent="1">
                    <mxGeometry x="380" y="100" width="120" height="40" as="geometry"/>
                </mxCell>
                <mxCell id="44" value="" style="edgeStyle=none;html=1;strokeWidth=3;fontFamily=Georgia;fontSize=19;entryX=0.4;entryY=0.008;entryDx=0;entryDy=0;entryPerimeter=0;exitX=0.5;exitY=1;exitDx=0;exitDy=0;" edge="1" parent="1" source="16" target="23">
                    <mxGeometry relative="1" as="geometry"/>
                </mxCell>
                <mxCell id="16" value="Incremental Update 2" style="rounded=1;whiteSpace=wrap;html=1;fontSize=19;fillColor=#f67d26;fontStyle=1;fontFamily=Georgia;" vertex="1" parent="1">
                    <mxGeometry x="520" y="100" width="200" height="40" as="geometry"/>
                </mxCell>
                <mxCell id="17" style="edgeStyle=none;html=1;exitX=1;exitY=0.5;exitDx=0;exitDy=0;fontFamily=Georgia;fontSize=19;strokeWidth=3;" edge="1" parent="1" source="18" target="20">
                    <mxGeometry relative="1" as="geometry"/>
                </mxCell>
                <mxCell id="18" value="Obtain New Data" style="rounded=1;whiteSpace=wrap;html=1;fontSize=19;fillColor=#3727eb;fontStyle=1;fontFamily=Georgia;" vertex="1" parent="1">
                    <mxGeometry x="80" y="160" width="160" height="40" as="geometry"/>
                </mxCell>
                <mxCell id="19" style="edgeStyle=none;html=1;exitX=1;exitY=0.5;exitDx=0;exitDy=0;entryX=0;entryY=0.5;entryDx=0;entryDy=0;fontFamily=Georgia;fontSize=19;strokeWidth=3;" edge="1" parent="1" source="20" target="22">
                    <mxGeometry relative="1" as="geometry"/>
                </mxCell>
                <mxCell id="20" value="Train Model" style="rounded=1;whiteSpace=wrap;html=1;fontSize=19;fillColor=#3727eb;fontStyle=1;fontFamily=Georgia;" vertex="1" parent="1">
                    <mxGeometry x="260" y="160" width="120" height="40" as="geometry"/>
                </mxCell>
                <mxCell id="21" value="" style="edgeStyle=none;html=1;strokeWidth=3;fontFamily=Georgia;fontSize=19;" edge="1" parent="1" source="22" target="23">
                    <mxGeometry relative="1" as="geometry"/>
                </mxCell>
                <mxCell id="22" value="Evaluate" style="rounded=1;whiteSpace=wrap;html=1;fontSize=19;fillColor=#3727eb;fontStyle=1;fontFamily=Georgia;" vertex="1" parent="1">
                    <mxGeometry x="400" y="160" width="120" height="40" as="geometry"/>
                </mxCell>
                <mxCell id="45" style="edgeStyle=none;html=1;exitX=0.5;exitY=1;exitDx=0;exitDy=0;entryX=0.368;entryY=-0.02;entryDx=0;entryDy=0;entryPerimeter=0;strokeWidth=3;fontFamily=Georgia;fontSize=19;" edge="1" parent="1" source="23" target="37">
                    <mxGeometry relative="1" as="geometry"/>
                </mxCell>
                <mxCell id="23" value="Incremental Update 3" style="rounded=1;whiteSpace=wrap;html=1;fontSize=19;fillColor=#f67d26;fontStyle=1;fontFamily=Georgia;" vertex="1" parent="1">
                    <mxGeometry x="540" y="160" width="200" height="40" as="geometry"/>
                </mxCell>
                <mxCell id="31" style="edgeStyle=none;html=1;exitX=1;exitY=0.5;exitDx=0;exitDy=0;fontFamily=Georgia;fontSize=19;strokeWidth=3;" edge="1" parent="1" source="32" target="34">
                    <mxGeometry relative="1" as="geometry"/>
                </mxCell>
                <mxCell id="32" value="Obtain New Data" style="rounded=1;whiteSpace=wrap;html=1;fontSize=19;fillColor=#3727eb;fontStyle=1;fontFamily=Georgia;" vertex="1" parent="1">
                    <mxGeometry x="110" y="220" width="160" height="40" as="geometry"/>
                </mxCell>
                <mxCell id="33" style="edgeStyle=none;html=1;exitX=1;exitY=0.5;exitDx=0;exitDy=0;entryX=0;entryY=0.5;entryDx=0;entryDy=0;fontFamily=Georgia;fontSize=19;strokeWidth=3;" edge="1" parent="1" source="34" target="36">
                    <mxGeometry relative="1" as="geometry"/>
                </mxCell>
                <mxCell id="34" value="Train Model" style="rounded=1;whiteSpace=wrap;html=1;fontSize=19;fillColor=#3727eb;fontStyle=1;fontFamily=Georgia;" vertex="1" parent="1">
                    <mxGeometry x="290" y="220" width="120" height="40" as="geometry"/>
                </mxCell>
                <mxCell id="35" value="" style="edgeStyle=none;html=1;strokeWidth=3;fontFamily=Georgia;fontSize=19;" edge="1" parent="1" source="36" target="37">
                    <mxGeometry relative="1" as="geometry"/>
                </mxCell>
                <mxCell id="36" value="Evaluate" style="rounded=1;whiteSpace=wrap;html=1;fontSize=19;fillColor=#3727eb;fontStyle=1;fontFamily=Georgia;" vertex="1" parent="1">
                    <mxGeometry x="430" y="220" width="120" height="40" as="geometry"/>
                </mxCell>
                <mxCell id="37" value="Incremental Update 4" style="rounded=1;whiteSpace=wrap;html=1;fontSize=19;fillColor=#f67d26;fontStyle=1;fontFamily=Georgia;" vertex="1" parent="1">
                    <mxGeometry x="570" y="220" width="190" height="40" as="geometry"/>
                </mxCell>
            </root>
        </mxGraphModel>
    </diagram>
</mxfile>